# xmcd CD database file
#
# Track frame offsets:
#	150
#	22213
#	42257
#	56616
#	72851
#	92769
#	111266
#	114208
#	130840
#	147217
#	160202
#	181269
#	199744
#	214720
#	227445
#	245023
#
# Disc length: 3505 seconds
#
# Revision: 0
# Processed by: cddbd v1.5.2PL0 Copyright (c) Steve Scherf et al.
# Submitted via: CDex 1.51
#
DISCID=df0daf10
DTITLE=SHEHAN Steve - Indigo dreams
DYEAR=1995
DGENRE=Jazz
TTITLE0=Indigo dreams
TTITLE1=Spiritus Cantus
TTITLE2=Amok - 1st part and 2nd part
TTITLE3=Tonkinoise
TTITLE4=Bird tribe
TTITLE5=Southern attitudes
TTITLE6=Southern latitudes
TTITLE7=Caravan in Kachgar
TTITLE8=Antlia
TTITLE9=Tjuringa
TTITLE10=Nam Binh (Southern Peace)
TTITLE11=Far away love
TTITLE12=Evening trip
TTITLE13=Towards You
TTITLE14=Eta Carinae Nebula
TTITLE15=Cardinal points
EXTD=YEAR: 1995
EXTT0=
EXTT1=
EXTT2=
EXTT3=
EXTT4=
EXTT5=
EXTT6=
EXTT7=
EXTT8=
EXTT9=
EXTT10=
EXTT11=
EXTT12=
EXTT13=
EXTT14=
EXTT15=
PLAYORDER=
